<?xml version="1.0" encoding="UTF-8"?>
<svg id="Layer_1" xmlns="http://www.w3.org/2000/svg" viewBox="0 0 108.11 108.11">
  <defs>
    <style>
      .cls-1 {
        fill: #231f20;
        font-family: Tahoma-Bold, Tahoma;
        font-size: 12px;
        font-weight: 700;
      }

      .cls-2 {
        fill: #fff;
        stroke: #ed1c24;
        stroke-miterlimit: 10;
        stroke-width: 3px;
      }

      .cls-3 {
        fill: #010101;
      }
    </style>
  </defs>
  <rect class="cls-2" x="1.5" y="1.5" width="105.11" height="105.11" rx="12" ry="12"/>
  <text class="cls-1" transform="translate(28.92 85.66)"><tspan x="0" y="0">Wireless </tspan><tspan x="-.5" y="14.4">Projector</tspan></text>
  <g>
    <path class="cls-3" d="M70.22,15.76c-.25,0-.5-.1-.69-.29-7.56-7.56-19.87-7.56-27.43,0-.38.38-1,.38-1.39,0s-.38-1,0-1.39c8.33-8.33,21.87-8.33,30.2,0,.38.38.38,1,0,1.39-.19.19-.44.29-.69.29Z"/>
    <path class="cls-3" d="M66.07,19.92c-.25,0-.5-.1-.69-.29-5.27-5.27-13.85-5.27-19.12,0-.38.38-1,.38-1.39,0s-.38-1,0-1.39c6.03-6.04,15.85-6.04,21.89,0,.38.38.38,1,0,1.39-.19.19-.44.29-.69.29Z"/>
    <path class="cls-3" d="M61.91,24.07c-.25,0-.5-.1-.69-.29-2.98-2.98-7.83-2.98-10.81,0-.38.38-1,.38-1.39,0-.38-.38-.38-1,0-1.39,3.74-3.74,9.83-3.74,13.58,0,.38.38.38,1,0,1.39-.19.19-.44.29-.69.29Z"/>
  </g>
  <path class="cls-3" d="M27.97,66.64v.2c0,1.83,1.49,3.31,3.31,3.31h50.18c1.83,0,3.31-1.49,3.31-3.31v-.2H27.97ZM60.24,69.32h-7.73c-.54,0-.98-.44-.98-.98s.44-.98.98-.98h7.73c.54,0,.98.44.98.98s-.44.98-.98.98Z"/>
  <path class="cls-3" d="M75.66,30.63h-38.57c-2.91,0-5.28,2.37-5.28,5.28v28.77h49.13v-28.77c0-2.91-2.37-5.28-5.28-5.28ZM76.69,60.33c0,.54-.44.98-.98.98h-38.67c-.54,0-.98-.44-.98-.98v-24.21c0-.54.44-.98.98-.98h38.67c.54,0,.98.43.98.98v24.21Z"/>
</svg>