<?xml version="1.0" encoding="UTF-8"?>
<svg id="Layer_1" xmlns="http://www.w3.org/2000/svg" viewBox="0 0 108.11 108.11">
  <defs>
    <style>
      .cls-1 {
        fill: #231f20;
        font-family: Tahoma-Bold, Tahoma;
        font-size: 12px;
        font-weight: 700;
      }

      .cls-2 {
        fill: #fff;
        stroke: #ed1c24;
        stroke-miterlimit: 10;
        stroke-width: 3px;
      }

      .cls-3 {
        fill: #010101;
      }
    </style>
  </defs>
  <rect class="cls-2" x="1.5" y="1.5" width="105.11" height="105.11" rx="12" ry="12"/>
  <text class="cls-1" transform="translate(21.82 87.59)"><tspan x="0" y="0">Adjustable</tspan><tspan x="12.17" y="14.4">Height</tspan></text>
  <g>
    <path class="cls-3" d="M48.5,19.76c.35.35.81.53,1.28.53s.92-.18,1.28-.53c.71-.71.71-1.85,0-2.55l-9.17-9.17c-.33-.33-.78-.54-1.28-.54s-.95.2-1.28.53l-9.05,9.05c-.71.71-.71,1.85,0,2.55.71.71,1.85.71,2.55,0l5.97-5.97v50.46l-5.97-5.97c-.71-.71-1.85-.71-2.55,0s-.71,1.85,0,2.55l9.17,9.17c.34.34.8.53,1.28.53s.94-.19,1.28-.53l9.05-9.05c.71-.71.71-1.85,0-2.55s-1.85-.71-2.55,0l-6.09,6.09V13.67l6.09,6.09Z"/>
    <path class="cls-3" d="M73.87,31.69c1,0,1.81-.81,1.81-1.81s-.81-1.81-1.81-1.81h-13.32v-2.97h9.24c1,0,1.81-.81,1.81-1.81s-.81-1.81-1.81-1.81h-9.24v-2.97h9.24c1,0,1.81-.81,1.81-1.81s-.81-1.81-1.81-1.81h-9.24v-3.79h13.32c1,0,1.81-.81,1.81-1.81s-.81-1.81-1.81-1.81h-15.13c-1,0-1.81.81-1.81,1.81v60.07c0,1,.81,1.81,1.81,1.81h15.13c1,0,1.81-.81,1.81-1.81s-.81-1.81-1.81-1.81h-13.32v-2.97h9.24c1,0,1.81-.81,1.81-1.81s-.81-1.81-1.81-1.81h-9.24v-2.97h9.24c1,0,1.81-.81,1.81-1.81s-.81-1.81-1.81-1.81h-9.24v-2.97h13.32c1,0,1.81-.81,1.81-1.81s-.81-1.81-1.81-1.81h-13.32v-2.97h9.24c1,0,1.81-.81,1.81-1.81s-.81-1.81-1.81-1.81h-9.24v-2.97h9.24c1,0,1.81-.81,1.81-1.81s-.81-1.81-1.81-1.81h-9.24v-2.97h13.32Z"/>
  </g>
</svg>