<?xml version="1.0" encoding="UTF-8"?>
<svg id="Layer_1" xmlns="http://www.w3.org/2000/svg" viewBox="0 0 108.11 108.11">
  <defs>
    <style>
      .cls-1 {
        fill: #333;
      }

      .cls-2 {
        fill: #231f20;
        font-family: Tahoma-Bold, Tahoma;
        font-size: 12px;
        font-weight: 700;
      }

      .cls-3 {
        fill: #fff;
        stroke: #ed1c24;
        stroke-miterlimit: 10;
        stroke-width: 3px;
      }
    </style>
  </defs>
  <rect class="cls-3" x="1.5" y="1.5" width="105.11" height="105.11" rx="12" ry="12"/>
  <text class="cls-2" transform="translate(13.55 90.43)"><tspan x="0" y="0">Touch Screen</tspan></text>
  <g>
    <path class="cls-1" d="M94.88,60.84l-.61-1.33-.46-1-5.69-12.49c-.69-1.51-2.49-2.18-4-1.5-1.51.69-2.18,2.49-1.5,4l-1.18-2.58c-.69-1.51-2.49-2.18-4-1.5-1.51.69-2.18,2.49-1.5,4l-.72-1.58c-.69-1.51-2.49-2.18-4-1.5-.98.45-1.61,1.36-1.74,2.36l-5.24-11.49c-.69-1.51-2.49-2.18-4-1.5-1.51.69-2.18,2.49-1.5,4l11.44,25.1-2.47-.93c-1.89-.71-3.99.25-4.69,2.14-.71,1.89.25,3.99,2.14,4.69,0,0,14.69,5.49,14.69,5.49,3.1,1.16,6.57,1.42,9.63.03,5.45-2.48,7.88-8.98,5.39-14.43Z"/>
    <path class="cls-1" d="M66.86,39.44c.46.13.93-.13,1.06-.59.18-.63.27-1.28.27-1.94,0-3.85-3.13-6.98-6.98-6.98s-6.98,3.13-6.98,6.98c0,2.63,1.45,5.01,3.79,6.21.13.06.26.1.39.1.31,0,.61-.17.77-.47.22-.42.05-.94-.37-1.16-1.76-.91-2.86-2.7-2.86-4.69,0-2.9,2.36-5.26,5.26-5.26s5.26,2.36,5.26,5.26c0,.5-.07.99-.21,1.47-.13.46.13.93.59,1.06Z"/>
    <path class="cls-1" d="M60.63,47.65c-5.7-.31-10.17-5.03-10.17-10.74s4.83-10.76,10.76-10.76,10.76,4.83,10.76,10.76c0,2.06-.58,4.06-1.69,5.79-.26.4-.14.93.26,1.19.4.26.93.14,1.19-.26,1.28-2,1.96-4.33,1.96-6.71,0-6.88-5.6-12.48-12.48-12.48s-12.48,5.6-12.48,12.48,5.18,12.1,11.8,12.46c.02,0,.03,0,.05,0,.45,0,.83-.36.86-.81.03-.47-.34-.88-.81-.9Z"/>
    <path class="cls-1" d="M59.8,66.38H20.12c-1.89,0-3.43-1.54-3.43-3.43V11.83c0-1.89,1.54-3.43,3.43-3.43h67.87c1.89,0,3.43,1.54,3.43,3.43v32.65h-1.8V11.83c0-.9-.73-1.63-1.63-1.63H20.12c-.9,0-1.63.73-1.63,1.63v51.12c0,.9.73,1.63,1.63,1.63h39.69v1.8Z"/>
  </g>
</svg>